<?xml version="1.0" encoding="UTF-8" standalone="no"?>
<!-- Created with Inkscape (http://www.inkscape.org/) -->

<svg
   xmlns:dc="http://purl.org/dc/elements/1.1/"
   xmlns:cc="http://creativecommons.org/ns#"
   xmlns:rdf="http://www.w3.org/1999/02/22-rdf-syntax-ns#"
   xmlns:svg="http://www.w3.org/2000/svg"
   xmlns="http://www.w3.org/2000/svg"
   xmlns:sodipodi="http://sodipodi.sourceforge.net/DTD/sodipodi-0.dtd"
   xmlns:inkscape="http://www.inkscape.org/namespaces/inkscape"
   width="150mm"
   height="150mm"
   viewBox="0 0 150 150"
   version="1.1"
   id="svg8"
   inkscape:version="0.92.2 2405546, 2018-03-11"
   sodipodi:docname="stop_phishing.svg">
  <defs
     id="defs2" />
  <sodipodi:namedview
     id="base"
     pagecolor="#ffffff"
     bordercolor="#666666"
     borderopacity="1.0"
     inkscape:pageopacity="0.0"
     inkscape:pageshadow="2"
     inkscape:zoom="0.35"
     inkscape:cx="-111.46021"
     inkscape:cy="453.14287"
     inkscape:document-units="mm"
     inkscape:current-layer="layer2"
     showgrid="false"
     inkscape:window-width="1920"
     inkscape:window-height="1028"
     inkscape:window-x="0"
     inkscape:window-y="0"
     inkscape:window-maximized="1" />
  <metadata
     id="metadata5">
    <rdf:RDF>
      <cc:Work
         rdf:about="">
        <dc:format>image/svg+xml</dc:format>
        <dc:type
           rdf:resource="http://purl.org/dc/dcmitype/StillImage" />
        <dc:title></dc:title>
      </cc:Work>
    </rdf:RDF>
  </metadata>
  <g
     inkscape:label="Calque 1"
     inkscape:groupmode="layer"
     id="layer1"
     transform="translate(-9.0797998,-118.72738)">
    <g
       id="g4766"
       transform="matrix(0.26458333,0,0,0.26458333,46.415476,130.99286)">
      <g
         id="g4709">
	<g
   id="g4707">
		<path
   id="path4705"
   d="m 369,0 c -33.084,0 -60,26.916 -60,60 0,8.636 2.358,24.14 22.745,58.925 6.675,11.391 13.297,21.449 17.255,27.295 V 359 c 0,62.309 -50.691,113 -113,113 -62.309,0 -113,-50.691 -113,-113 0,-24.428 9.535,-50.952 27,-76.518 V 305 c 0,11.046 8.954,20 20,20 11.046,0 20,-8.954 20,-20 v -76 c 0,-7.972 -4.734,-15.182 -12.049,-18.352 -7.314,-3.171 -15.812,-1.692 -21.628,3.759 C 109.725,258.081 83,310.783 83,359 c 0,84.364 68.636,153 153,153 84.364,0 153,-68.636 153,-153 V 146.108 c 3.926,-5.916 10.584,-16.21 17.3,-27.788 C 426.647,83.245 429,68.237 429,60 429,26.916 402.084,0 369,0 Z m 2.605,98.413 c -0.917,1.58 -1.836,3.138 -2.747,4.661 -0.909,-1.505 -1.825,-3.044 -2.739,-4.607 C 349.194,69.543 349,60.376 349,60 c 0,-11.028 8.972,-20 20,-20 11.028,0 20,8.972 20,19.977 -0.009,0.363 -0.432,9.225 -17.395,38.436 z"
   inkscape:connector-curvature="0" />

	</g>

</g>
      <g
         id="g4711">
</g>
      <g
         id="g4713">
</g>
      <g
         id="g4715">
</g>
      <g
         id="g4717">
</g>
      <g
         id="g4719">
</g>
      <g
         id="g4721">
</g>
      <g
         id="g4723">
</g>
      <g
         id="g4725">
</g>
      <g
         id="g4727">
</g>
      <g
         id="g4729">
</g>
      <g
         id="g4731">
</g>
      <g
         id="g4733">
</g>
      <g
         id="g4735">
</g>
      <g
         id="g4737">
</g>
      <g
         id="g4739">
</g>
    </g>
  </g>
  <g
     inkscape:groupmode="layer"
     id="layer2"
     inkscape:label="Calque 2"
     transform="translate(-9.0797998,-118.72738)">
    <g
       id="g4703"
       transform="matrix(0.17776678,0,0,0.17776678,12.103609,121.96868)">
      <g
         id="g4646">
	<path
   id="path4642"
   d="M 213.333,0 C 95.509,0 0,95.514 0,213.333 c 0,117.819 95.509,213.333 213.333,213.333 117.815,0 213.333,-95.514 213.333,-213.333 C 426.666,95.514 331.149,0 213.333,0 Z m 0,372.527 c -87.778,0 -159.194,-71.411 -159.194,-159.194 0,-87.783 71.416,-159.193 159.194,-159.193 87.778,0 159.194,71.415 159.194,159.194 0,87.779 -71.416,159.193 -159.194,159.193 z"
   style="fill:#f05228"
   inkscape:connector-curvature="0" />

	
		<rect
   id="rect4644"
   height="54.139"
   width="392.53"
   style="fill:#f05228"
   transform="matrix(-0.7071,-0.7071,0.7071,-0.7071,213.3327,515.0204)"
   y="186.258"
   x="17.066" />

</g>
      <g
         id="g4648">
</g>
      <g
         id="g4650">
</g>
      <g
         id="g4652">
</g>
      <g
         id="g4654">
</g>
      <g
         id="g4656">
</g>
      <g
         id="g4658">
</g>
      <g
         id="g4660">
</g>
      <g
         id="g4662">
</g>
      <g
         id="g4664">
</g>
      <g
         id="g4666">
</g>
      <g
         id="g4668">
</g>
      <g
         id="g4670">
</g>
      <g
         id="g4672">
</g>
      <g
         id="g4674">
</g>
      <g
         id="g4676">
</g>
    </g>
  </g>
</svg>
